<?xml version="1.0" standalone="no"?>
<!DOCTYPE svg PUBLIC "-//W3C//DTD SVG 20010904//EN"
 "http://www.w3.org/TR/2001/REC-SVG-20010904/DTD/svg10.dtd">
<svg version="1.0" xmlns="http://www.w3.org/2000/svg"
 width="260.000000pt" height="260.000000pt" viewBox="0 0 260.000000 260.000000"
 preserveAspectRatio="xMidYMid meet">
<metadata>
Created by potrace 1.11, written by Peter Selinger 2001-2013
</metadata>
<g transform="translate(0.000000,260.000000) scale(0.100000,-0.100000)"
fill="#000000" stroke="none">
<path d="M1200 2446 c-161 -46 -263 -159 -264 -290 0 -79 15 -122 71 -197 43
-59 51 -80 93 -237 l11 -42 216 2 216 3 28 97 c20 72 37 109 63 141 19 24 47
69 62 101 23 51 26 67 22 137 -4 69 -9 84 -40 132 -40 59 -102 105 -187 138
-69 27 -223 35 -291 15z m195 -41 c116 -20 224 -113 246 -211 11 -47 10 -62
-4 -107 -9 -29 -27 -65 -40 -81 l-23 -29 -27 26 c-29 27 -94 47 -150 47 -23 0
-37 6 -41 16 -12 30 -6 36 29 32 35 -4 35 -4 35 35 0 38 0 38 -31 32 -31 -7
-31 -6 -27 24 4 30 3 31 -35 31 -38 0 -38 -1 -32 -30 6 -29 6 -30 -24 -24 -30
6 -31 5 -31 -30 0 -33 2 -36 30 -36 25 0 30 -4 30 -25 0 -23 -4 -25 -45 -25
-55 0 -110 -22 -147 -57 -35 -33 -49 -23 -79 55 -47 127 8 255 141 323 47 25
144 49 170 44 8 -2 33 -6 55 -10z m-119 -413 c7 -4 14 -62 18 -141 l7 -134
-38 7 c-21 3 -57 6 -80 6 -37 0 -42 3 -52 31 -29 83 -3 200 49 226 28 14 79
17 96 5z m177 -6 c18 -7 47 -29 64 -49 l32 -37 -14 -47 c-9 -27 -20 -65 -27
-85 l-11 -38 -76 0 -76 0 6 123 c3 68 9 129 13 135 10 16 49 15 89 -2z"/>
<path d="M557 1943 c-4 -3 -7 -17 -7 -30 0 -19 -5 -23 -30 -23 -28 0 -30 -3
-30 -35 0 -33 2 -35 35 -35 24 0 35 -5 35 -15 0 -11 -11 -15 -41 -15 -31 0
-47 -6 -70 -29 -51 -52 -35 -124 49 -214 l49 -52 6 -148 6 -147 -29 -15 c-40
-21 -60 -53 -60 -96 0 -30 7 -43 35 -68 20 -17 40 -31 45 -31 15 0 1 -621 -16
-719 -8 -46 -13 -86 -10 -89 3 -3 28 -7 56 -10 l50 -5 0 403 0 402 42 38 c37
32 43 43 43 78 0 43 -29 86 -67 98 -17 5 -18 19 -18 175 l0 169 -63 49 c-62
49 -80 73 -90 119 -10 47 76 50 102 4 8 -13 12 -12 36 6 29 23 89 30 100 12 6
-9 -19 -58 -57 -112 -17 -24 3 -43 35 -34 36 9 67 64 67 118 0 58 -30 89 -92
92 -31 2 -44 7 -46 19 -3 13 4 17 33 17 35 0 36 1 33 33 -2 27 -8 33 -30 35
-24 3 -28 8 -28 33 0 26 -3 29 -33 29 -19 0 -37 -3 -40 -7z m73 -803 c28 -28
26 -75 -5 -106 -23 -23 -26 -24 -54 -10 -46 24 -54 67 -20 110 24 31 52 33 79
6z"/>
<path d="M1365 1644 c-34 -34 4 -84 40 -54 20 16 19 56 -1 64 -21 8 -20 8 -39
-10z"/>
<path d="M1241 1632 c-12 -23 4 -52 29 -52 26 0 45 36 29 56 -16 19 -46 18
-58 -4z"/>
<path d="M1535 1534 l-200 -94 -183 84 -183 85 -92 -117 c-51 -64 -107 -135
-124 -158 l-32 -41 79 -38 c44 -20 80 -41 80 -45 0 -4 -13 -39 -29 -76 -112
-265 -181 -594 -181 -871 l0 -93 216 0 c211 0 216 0 211 -20 -3 -11 -2 -20 1
-20 4 0 106 -7 227 -14 121 -8 223 -12 227 -9 5 2 8 18 8 34 l0 30 198 -7 199
-7 7 76 c6 69 2 208 -9 297 -4 32 -1 37 27 49 17 8 38 27 47 43 14 26 20 29
56 24 22 -3 67 -8 99 -12 l59 -7 -5 227 c-3 125 -8 229 -11 233 -3 3 -73 -4
-154 -15 -91 -13 -163 -18 -188 -14 -38 7 -41 10 -67 77 l-27 70 75 38 c41 20
74 39 74 42 0 7 -183 319 -194 332 -8 8 -61 -12 -211 -83z m-378 -57 l173 -87
179 90 180 90 80 -127 c44 -70 79 -128 78 -129 -1 -1 -75 -45 -164 -98 -157
-93 -163 -98 -163 -129 1 -104 -33 -893 -39 -899 -6 -7 -309 -13 -316 -6 -2 1
-8 176 -14 388 -6 212 -14 422 -17 467 l-6 82 -154 92 c-85 50 -157 95 -160
100 -5 9 158 260 166 256 3 -1 83 -42 177 -90z m-130 -342 l73 -40 0 -431 0
-430 -157 -11 c-87 -6 -160 -8 -163 -6 -3 3 -6 83 -8 178 -4 192 15 343 64
512 38 130 95 274 108 271 6 -2 44 -21 83 -43z m709 -10 c13 -31 24 -58 24
-60 0 -3 -34 -2 -76 2 l-77 6 6 -34 c3 -19 11 -117 18 -219 7 -102 15 -188 18
-192 3 -4 40 0 81 9 70 15 75 14 85 -3 5 -10 22 -29 36 -43 34 -34 59 -143 59
-258 l0 -90 -171 -7 c-94 -3 -175 -4 -180 -1 -5 4 -9 182 -9 435 l0 428 73 40
c39 22 76 41 80 41 4 1 19 -24 33 -54z m448 -122 c-2 -21 -9 -98 -14 -172 -5
-74 -11 -135 -12 -136 -2 -2 -27 1 -56 5 -40 5 -59 13 -75 32 -12 14 -34 34
-49 43 -28 17 -28 18 -28 126 0 60 1 109 3 110 5 2 194 27 214 28 19 1 21 -3
17 -36z m-301 10 c4 -2 7 -55 7 -118 0 -104 -2 -114 -20 -120 -10 -3 -30 -18
-42 -34 -23 -26 -112 -61 -125 -48 -6 7 -21 199 -22 285 l-1 54 98 -7 c53 -4
100 -9 105 -12z m95 -299 c16 -11 22 -24 20 -42 -7 -61 -149 -61 -156 0 -4 33
29 58 78 58 20 0 46 -7 58 -16z"/>
<path d="M1076 1419 l-17 -42 -28 27 c-34 32 -44 33 -64 2 -16 -23 -15 -24 29
-41 l46 -17 -33 -34 c-18 -19 -31 -35 -28 -37 6 -6 47 -27 52 -27 2 0 12 18
22 40 l18 39 40 -31 c38 -30 40 -31 53 -13 20 28 18 33 -27 56 l-41 21 32 33
32 33 -30 16 c-17 9 -33 16 -35 16 -3 0 -12 -19 -21 -41z"/>
<path d="M1533 1442 l-33 -17 25 -30 c13 -17 24 -33 25 -36 0 -3 -18 -11 -40
-18 l-41 -12 21 -29 21 -30 33 25 c18 14 36 25 39 25 4 0 13 -16 21 -35 14
-33 16 -34 45 -24 17 6 31 14 31 17 0 3 -14 20 -31 38 l-31 32 52 17 52 17
-25 26 -26 25 -35 -27 -35 -26 -18 39 -18 40 -32 -17z"/>
<path d="M1297 1094 l6 -46 -49 3 c-34 2 -49 0 -48 -9 4 -44 2 -43 50 -36 l46
7 -7 -40 c-6 -36 -4 -41 17 -47 42 -11 60 -7 54 12 -3 9 -8 30 -12 46 l-7 29
47 -7 46 -7 0 32 0 31 -45 -6 -45 -7 6 45 7 46 -36 0 -37 0 7 -46z"/>
<path d="M1303 755 c4 -25 3 -45 -1 -45 -4 1 -26 5 -49 9 l-43 8 0 -34 0 -34
49 7 49 6 -8 -41 c-8 -47 -6 -51 33 -51 28 0 29 1 25 46 l-3 46 42 -4 c41 -3
43 -2 43 26 0 28 0 28 -46 21 -41 -6 -45 -5 -40 12 21 72 21 73 -19 73 l-38 0
6 -45z"/>
<path d="M1300 424 l7 -46 -48 6 -49 7 0 -32 0 -32 46 6 46 5 -5 -44 -5 -44
39 0 c42 0 42 0 23 72 -5 15 1 16 45 11 l51 -6 0 33 0 33 -49 -6 -48 -6 5 45
5 44 -35 0 -35 0 7 -46z"/>
</g>
</svg>
